<svg role="img" viewBox="0 0 24 24" xmlns="http://www.w3.org/2000/svg"><title>Amazon DynamoDB</title><path d="M16.606 11.074a.965.965 0 0 0-.574.853v6.449c0 .38.212.728.574.853l5.32 2.46c.175.082.358.122.54.122.183 0 .366-.04.541-.122a1.124 1.124 0 0 0 .574-.852v-6.45a.965.965 0 0 0-.574-.852zm4.787 7.717-3.72-1.721V13.78l3.72 1.721zM23.426 6.916a1.124 1.124 0 0 0-.574-.852L17.532 3.6a.965.965 0 0 0-.574-.122c-.183 0-.366.04-.54.122l-5.321 2.463a1.124 1.124 0 0 0-.574.852v6.449c0 .38.212.728.574.853l5.32 2.46c.175.082.358.122.541.122.183 0 .366-.04.54-.122l5.321-2.46c.362-.125.574-.472.574-.852zm-6.894 5.757-3.72-1.721V7.662l3.72 1.72zm1.067-4.606-3.72-1.72 3.72-1.721 3.72 1.72zM21.653 17.07l-3.72 1.72v-3.29l3.72-1.721zm-10.56-5.996a.965.965 0 0 0-.573.853v6.449c0 .38.212.728.574.853l5.32 2.46c.175.082.358.122.54.122.184 0 .366-.04.541-.122a1.124 1.124 0 0 0 .574-.852v-6.45a.965.965 0 0 0-.574-.852zm4.787 7.717-3.72-1.721V13.78l3.72 1.721zM1.667 11.074a.965.965 0 0 0-.574.853v6.449c0 .38.212.728.574.853l5.32 2.46c.175.082.357.122.54.122.183 0 .366-.04.54-.122a1.124 1.124 0 0 0 .574-.852v-6.45a.965.965 0 0 0-.574-.852zm4.786 7.717-3.72-1.721V13.78l3.72 1.721zM8.487 6.916a1.124 1.124 0 0 0-.574-.852L2.593 3.6a.965.965 0 0 0-.574-.122c-.183 0-.366.04-.54.122L.157 6.064a1.124 1.124 0 0 0-.574.852v6.449c0 .38.212.728.574.853l5.32 2.46c.175.082.358.122.54.122.184 0 .366-.04.541-.122l5.32-2.46c.362-.125.574-.472.574-.852zm-6.894 5.757-3.72-1.721V7.662l3.72 1.72zm1.067-4.606-3.72-1.72L3.66 4.625l3.72 1.72zM6.714 17.07l-3.72 1.72v-3.29l3.72-1.721z"/></svg>
